<?xml version="1.0" standalone="no"?><!DOCTYPE svg PUBLIC "-//W3C//DTD SVG 1.1//EN" "http://www.w3.org/Graphics/SVG/1.1/DTD/svg11.dtd"><svg t="1551924001639" class="icon" style="" viewBox="0 0 1024 1024" version="1.1" xmlns="http://www.w3.org/2000/svg" p-id="1486" xmlns:xlink="http://www.w3.org/1999/xlink" width="32" height="32"><defs><style type="text/css"></style></defs><path d="M850.8 597.6c-0.3 2.1-0.6 4.2-1 6.3 0.5-2 0.8-4 1-6.3z" fill="#00FF00" p-id="1487"></path><path d="M924.4 583.8c-4.9-3.7-11.1-5.8-17.7-5.8s-12.7 2.1-17.7 5.8c-4.2 3.1-7.5 7.1-9.7 11.9-1.6 3.6-2.5 7.5-2.6 11.7-40.4 168.4-192.4 294-373.1 294-211.5 0-383.6-172.1-383.6-383.7S292.1 134 503.7 134c87.5 0 168.1 29.5 232.8 78.9l-90.1-8.3c-15.9-1.4-30 10.2-31.5 26.2-1.4 15.9 10.2 30 26.2 31.5l169.5 15.6c0.9 0.1 1.8 0.1 2.7 0.1h1.2c14.9 0 27.5-11.4 28.9-26.5l13.3-156c1.4-15.7-10.5-29.7-26.4-31.1-15.9-1.4-29.9 10.4-31.3 26.4l-7.8 91.7c-34.6-29.7-73.3-53.7-115.5-71.6C621.2 87.7 563.4 76 503.7 76s-117.5 11.8-171.9 34.8c-52.6 22.2-99.8 54.1-140.4 94.6S119 293.2 96.8 345.8c-23.1 54.4-34.7 112.3-34.7 171.9 0 59.7 11.7 117.5 34.7 171.9 22.2 52.6 54.1 99.8 94.6 140.4s87.7 72.4 140.4 94.6c54.4 23.1 112.3 34.7 171.9 34.7s117.5-11.7 171.9-34.7c52.6-22.2 99.8-54.1 140.4-94.6s72.4-87.7 94.6-140.4c9.3-21.8 16.6-44.2 22.2-67 1.4-5.6 2.6-11.2 3.8-16.8-0.7-9-5.4-16.9-12.2-22z" fill="" p-id="1488"></path><path d="M702.7 412H700l-263.3 27.2V317.4c0-13.9-11.2-25.1-25.7-25.1-13.9 0-25.1 11.2-25.1 25.1v127.1l-124.3 12.8c-13.9 1.6-24 13.9-22.4 27.8 1.6 12.8 12.3 23 25.1 23h2.7l119.6-12.3v110c0 37.9 6.4 62.5 20.3 79.5 16.6 20.3 44.3 29.3 87.6 29.3h122.3c12.8 0 34.2 0 52.9-9.1 23-11.2 34.2-32 34.2-63 0-13.9-11.2-25.1-25.1-25.1S653 628.8 653 642.7c0 17.1 0 21.3-36.3 21.3H494.4c-27.8 0-41.1-3.2-48.1-11.2-7.4-8-9.1-23-9.1-47V491l268.1-27.8c7-0.6 12.8-3.8 17.1-9.1 4.2-5.3 6.4-11.8 5.3-18.7-0.9-13.2-12.1-23.4-25-23.4z" fill="" p-id="1489"></path></svg>